<?xml version="1.0" standalone="no"?><!DOCTYPE svg PUBLIC "-//W3C//DTD SVG 1.1//EN" "http://www.w3.org/Graphics/SVG/1.1/DTD/svg11.dtd"><svg t="1723180308905" class="icon" viewBox="0 0 1024 1024" version="1.1" xmlns="http://www.w3.org/2000/svg" p-id="2927" xmlns:xlink="http://www.w3.org/1999/xlink" width="256" height="256"><path d="M196.923077 571.116308C196.923077 345.954462 229.297231 177.230769 512 177.230769s315.076923 168.743385 315.076923 393.885539a39.384615 39.384615 0 1 0 78.769231 0C905.846154 304.896 841.078154 98.461538 512 98.461538S118.153846 304.876308 118.153846 571.116308a39.384615 39.384615 0 1 0 78.769231 0z" fill="#ffffff" p-id="2928"></path><path d="M275.692308 886.153846V571.076923a39.384615 39.384615 0 0 0-39.384616-39.384615C74.180923 531.692308 0 603.273846 0 728.615385s74.180923 196.923077 236.307692 196.923077a39.384615 39.384615 0 0 0 39.384616-39.384616zM78.769231 728.615385c0-71.483077 29.676308-108.681846 118.153846-116.55877V845.193846c-88.477538-7.876923-118.153846-45.075692-118.153846-116.558769z m748.307692-116.55877c88.477538 7.876923 118.153846 45.075692 118.153846 116.55877 0 71.483077-29.676308 108.681846-118.153846 116.558769V612.036923zM748.307692 886.153846a39.384615 39.384615 0 0 0 39.384616 39.384616c162.126769 0 236.307692-71.581538 236.307692-196.923077s-74.180923-196.923077-236.307692-196.923077a39.384615 39.384615 0 0 0-39.384616 39.384615v315.076923z" fill="#ffffff" p-id="2929"></path></svg>