<?xml version="1.0" standalone="no"?><!DOCTYPE svg PUBLIC "-//W3C//DTD SVG 1.1//EN" "http://www.w3.org/Graphics/SVG/1.1/DTD/svg11.dtd"><svg t="1735100560454" class="icon" viewBox="0 0 1024 1024" version="1.1" xmlns="http://www.w3.org/2000/svg" p-id="6162" xmlns:xlink="http://www.w3.org/1999/xlink" width="256" height="256"><path d="M384 307.2h486.4c28.16 0 51.2-23.04 51.2-51.2s-23.04-51.2-51.2-51.2H384c-28.16 0-51.2 23.04-51.2 51.2s23.04 51.2 51.2 51.2zM204.8 204.8H153.6c-28.16 0-51.2 23.04-51.2 51.2s23.04 51.2 51.2 51.2h51.2c28.16 0 51.2-23.04 51.2-51.2s-23.04-51.2-51.2-51.2zM384 563.2h384c28.16 0 51.2-23.04 51.2-51.2s-23.04-51.2-51.2-51.2H384c-28.16 0-51.2 23.04-51.2 51.2s23.04 51.2 51.2 51.2zM204.8 460.8H153.6c-28.16 0-51.2 23.04-51.2 51.2s23.04 51.2 51.2 51.2h51.2c28.16 0 51.2-23.04 51.2-51.2s-23.04-51.2-51.2-51.2zM870.4 742.4H384c-28.16 0-51.2 23.04-51.2 51.2s23.04 51.2 51.2 51.2h486.4c28.16 0 51.2-23.04 51.2-51.2s-23.04-51.2-51.2-51.2zM204.8 742.4H153.6c-28.16 0-51.2 23.04-51.2 51.2s23.04 51.2 51.2 51.2h51.2c28.16 0 51.2-23.04 51.2-51.2s-23.04-51.2-51.2-51.2z" p-id="6163" fill="#ffffff"></path></svg>