<?xml version="1.0" standalone="no"?><!DOCTYPE svg PUBLIC "-//W3C//DTD SVG 1.1//EN" "http://www.w3.org/Graphics/SVG/1.1/DTD/svg11.dtd"><svg t="1723179877727" class="icon" viewBox="0 0 1024 1024" version="1.1" xmlns="http://www.w3.org/2000/svg" p-id="7015" xmlns:xlink="http://www.w3.org/1999/xlink" width="256" height="256"><path d="M325.818182 250.740364v196.701091C325.818182 532.154182 407.063273 605.090909 512 605.090909c104.797091 0 186.181818-73.076364 186.181818-157.649454v-196.701091C698.181818 166.027636 616.936727 93.090909 512 93.090909c-104.797091 0-186.181818 73.076364-186.181818 157.649455z m-93.090909 0C232.727273 112.337455 357.934545 0 512 0c154.251636 0 279.272727 112.267636 279.272727 250.740364v196.701091C791.272727 585.844364 666.065455 698.181818 512 698.181818c-154.251636 0-279.272727-112.267636-279.272727-250.740363v-196.701091z" fill="#ffffff" p-id="7016"></path><path d="M558.545455 882.688V977.454545c0 25.716364-20.666182 46.545455-46.545455 46.545455-25.716364 0-46.545455-20.642909-46.545455-46.545455v-94.766545C174.010182 861.346909 46.545455 639.022545 46.545455 419.258182v-46.917818a46.545455 46.545455 0 0 1 93.090909 0v46.917818c0 179.339636 98.862545 371.2 370.594909 372.037818a48.174545 48.174545 0 0 1 3.537454 0C785.501091 790.481455 884.363636 598.644364 884.363636 419.258182v-46.917818a46.545455 46.545455 0 0 1 93.090909 0v46.917818c0 219.810909-127.464727 442.112-418.90909 463.429818z" fill="#ffffff" p-id="7017"></path></svg>